<?xml version="1.0" standalone="no"?>
<!DOCTYPE svg PUBLIC "-//W3C//DTD SVG 20010904//EN"
 "http://www.w3.org/TR/2001/REC-SVG-20010904/DTD/svg10.dtd">
<svg version="1.0" xmlns="http://www.w3.org/2000/svg"
 width="195.000000pt" height="78.000000pt" viewBox="0 0 195.000000 78.000000"
 preserveAspectRatio="xMidYMid meet">

<g transform="translate(0.000000,78.000000) scale(0.100000,-0.100000)"
fill="#000000" stroke="none">
<path d="M1480 701 c0 -5 -4 -21 -10 -36 l-10 -26 -39 21 c-54 27 -61 26 -61
-16 0 -35 -1 -35 -32 -29 -18 4 -41 9 -51 12 -15 4 -17 -1 -15 -39 l3 -43 -42
-3 c-46 -3 -52 -14 -28 -46 18 -24 19 -46 2 -46 -7 0 -23 -7 -36 -17 l-24 -16
34 -28 34 -27 -24 -26 c-44 -46 -5 -58 102 -30 70 18 138 51 217 104 82 55
133 79 217 101 42 10 78 21 80 23 2 2 5 16 6 32 2 26 -1 29 -24 26 -21 -2 -29
3 -39 28 -17 40 -27 46 -49 25 -18 -15 -21 -14 -50 22 -33 40 -32 40 -60 -6
-7 -12 -16 -8 -47 17 -40 33 -54 39 -54 23z"/>
<path d="M1755 493 c-75 -17 -157 -53 -247 -109 -98 -61 -179 -99 -241 -111
-15 -3 -26 -10 -24 -16 3 -10 14 -14 90 -31 18 -4 27 -13 27 -26 0 -17 7 -20
39 -20 30 0 40 4 44 20 5 18 14 20 76 20 65 0 71 -2 71 -21 0 -17 5 -20 37
-17 33 3 39 7 43 33 4 26 16 36 90 73 134 67 125 57 90 101 -17 21 -35 54 -41
74 -10 36 -14 39 -54 30z m5 -58 c0 -8 -7 -15 -15 -15 -8 0 -15 7 -15 15 0 8
7 15 15 15 8 0 15 -7 15 -15z"/>
<path d="M87 453 c-9 -8 -9 -46 -1 -67 8 -20 34 -21 34 -1 0 8 4 15 9 15 10 0
27 -138 18 -146 -3 -3 -14 -1 -25 5 -17 9 -22 8 -27 -9 -9 -30 2 -40 45 -40
54 0 76 32 61 87 -16 56 -14 103 4 103 9 0 15 9 15 24 0 30 -16 42 -35 26 -10
-8 -19 -8 -34 -1 -22 12 -54 14 -64 4z"/>
<path d="M591 451 c-12 -7 -12 -19 -4 -63 6 -29 9 -77 6 -105 l-6 -53 33 0 33
0 -6 45 c-6 43 -5 45 18 45 21 0 24 -5 27 -42 3 -40 5 -43 33 -43 23 0 31 5
33 23 2 12 -2 22 -9 22 -9 0 -10 22 -5 90 7 89 6 90 -16 90 -40 0 -50 -14 -46
-61 3 -39 0 -44 -19 -47 -21 -3 -21 -1 -16 52 6 54 5 56 -18 56 -13 0 -30 -4
-38 -9z"/>
<path d="M270 397 c-23 -12 -25 -19 -25 -79 0 -37 3 -69 7 -73 3 -4 24 -9 46
-12 58 -8 82 19 82 91 0 33 -5 58 -13 65 -23 18 -70 22 -97 8z m60 -86 c0 -42
-6 -52 -26 -44 -14 5 -20 73 -8 86 15 15 34 -8 34 -42z"/>
<path d="M422 393 c-17 -16 -19 -27 -15 -85 5 -57 8 -68 26 -74 15 -5 25 -1
32 11 30 51 34 52 35 8 0 -41 -1 -43 -30 -43 -39 0 -40 -27 -3 -41 20 -7 34
-7 51 3 37 19 43 40 31 104 -8 42 -8 64 1 83 10 21 9 27 -6 38 -24 18 -41 16
-53 -4 -9 -17 -10 -17 -16 0 -4 9 -13 17 -20 17 -7 0 -22 -8 -33 -17z m68 -56
c0 -7 -7 -22 -15 -33 -14 -18 -14 -17 -15 14 0 22 5 32 15 32 8 0 15 -6 15
-13z"/>
<path d="M808 399 c-27 -10 -28 -14 -28 -74 0 -74 14 -95 66 -95 52 0 74 28
74 94 0 33 -5 58 -13 65 -21 17 -69 21 -99 10z m52 -58 c11 -21 14 -64 4 -74
-17 -16 -34 8 -34 49 0 47 12 57 30 25z"/>
<path d="M963 395 c-20 -14 -22 -21 -16 -83 3 -37 11 -70 17 -74 22 -15 36 -7
55 30 l20 37 1 -47 c0 -47 -1 -48 -30 -48 -20 0 -30 -5 -30 -15 0 -22 45 -37
73 -24 39 18 46 39 35 103 -8 42 -7 65 2 84 10 22 9 28 -6 39 -24 17 -41 16
-52 -3 -8 -14 -10 -14 -21 0 -17 20 -21 20 -48 1z m67 -58 c0 -7 -7 -22 -15
-33 -14 -18 -14 -17 -15 14 0 22 5 32 15 32 8 0 15 -6 15 -13z"/>
</g>
</svg>
