<?xml version="1.0" standalone="no"?>
<!DOCTYPE svg PUBLIC "-//W3C//DTD SVG 20010904//EN"
 "http://www.w3.org/TR/2001/REC-SVG-20010904/DTD/svg10.dtd">
<svg version="1.0" xmlns="http://www.w3.org/2000/svg"
 width="52.000000pt" height="52.000000pt" viewBox="0 0 52.000000 52.000000"
 preserveAspectRatio="xMidYMid meet">

<g transform="translate(0.000000,52.000000) scale(0.100000,-0.100000)"
fill="#000000" stroke="none">
<path d="M360 500 c-11 -11 -20 -24 -20 -30 0 -5 9 -19 20 -30 11 -11 25 -20
30 -20 6 0 19 9 30 20 11 11 20 25 20 30 0 6 -9 19 -20 30 -11 11 -24 20 -30
20 -5 0 -19 -9 -30 -20z"/>
<path d="M162 403 c-23 -21 -42 -41 -42 -45 0 -15 35 -8 65 12 32 21 85 27 85
10 0 -6 -16 -34 -35 -63 -19 -28 -35 -59 -35 -69 0 -9 24 -33 55 -53 30 -21
55 -38 55 -40 0 -1 -11 -32 -24 -67 -17 -44 -21 -69 -15 -79 8 -11 13 -10 30
11 23 27 79 133 79 149 0 5 -20 24 -44 42 l-45 31 26 39 26 39 19 -31 c19 -31
21 -32 75 -26 30 3 57 8 60 11 12 11 -11 26 -40 26 -40 0 -50 7 -67 48 -19 49
-66 80 -131 87 -52 6 -56 4 -97 -32z"/>
<path d="M168 198 c-3 -7 -35 -17 -74 -23 -50 -7 -69 -14 -69 -25 0 -11 17
-17 65 -23 77 -10 101 -5 118 24 11 18 11 24 -4 40 -20 22 -31 24 -36 7z"/>
</g>
</svg>
